<svg width="280" height="115" viewBox="0 0 280 115" fill="none" xmlns="http://www.w3.org/2000/svg">
<path d="M9.94799 6.78008H6.45999V16.5801H4.30799V6.78008H0.819987V5.01208H9.94799V6.78008ZM13.4001 13.0761C12.8294 13.1027 12.3494 13.1534 11.9601 13.2281C11.5708 13.2974 11.2588 13.3881 11.0241 13.5001C10.7894 13.6121 10.6214 13.7427 10.5201 13.8921C10.4188 14.0414 10.3681 14.2041 10.3681 14.3801C10.3681 14.7267 10.4694 14.9747 10.6721 15.1241C10.8801 15.2734 11.1494 15.3481 11.4801 15.3481C11.8854 15.3481 12.2348 15.2761 12.5281 15.1321C12.8268 14.9827 13.1174 14.7587 13.4001 14.4601V13.0761ZM8.87211 9.51608C9.81611 8.65208 10.9521 8.22008 12.2801 8.22008C12.7601 8.22008 13.1894 8.30008 13.5681 8.46008C13.9468 8.61474 14.2668 8.83341 14.5281 9.11608C14.7894 9.39341 14.9868 9.72674 15.1201 10.1161C15.2588 10.5054 15.3281 10.9321 15.3281 11.3961V16.5801H14.4321C14.2454 16.5801 14.1014 16.5534 14.0001 16.5001C13.8988 16.4414 13.8188 16.3267 13.7601 16.1561L13.5841 15.5641C13.3761 15.7507 13.1734 15.9161 12.9761 16.0601C12.7788 16.1987 12.5734 16.3161 12.3601 16.4121C12.1468 16.5081 11.9174 16.5801 11.6721 16.6281C11.4321 16.6814 11.1654 16.7081 10.8721 16.7081C10.5254 16.7081 10.2054 16.6627 9.91211 16.5721C9.61878 16.4761 9.36544 16.3347 9.15211 16.1481C8.93878 15.9614 8.77344 15.7294 8.65611 15.4521C8.53878 15.1747 8.48011 14.8521 8.48011 14.4841C8.48011 14.2761 8.51478 14.0707 8.58411 13.8681C8.65344 13.6601 8.76544 13.4627 8.92011 13.2761C9.08011 13.0894 9.28544 12.9134 9.53611 12.7481C9.78678 12.5827 10.0934 12.4387 10.4561 12.3161C10.8241 12.1934 11.2508 12.0947 11.7361 12.0201C12.2214 11.9401 12.7761 11.8921 13.4001 11.8761V11.3961C13.4001 10.8467 13.2828 10.4414 13.0481 10.1801C12.8134 9.91341 12.4748 9.78008 12.0321 9.78008C11.7121 9.78008 11.4454 9.81741 11.2321 9.89208C11.0241 9.96674 10.8401 10.0521 10.6801 10.1481C10.5201 10.2387 10.3734 10.3214 10.2401 10.3961C10.1121 10.4707 9.96811 10.5081 9.80811 10.5081C9.66944 10.5081 9.55211 10.4734 9.45611 10.4041C9.36011 10.3294 9.28278 10.2441 9.22411 10.1481L8.87211 9.51608ZM18.7331 9.79608C18.9891 9.30541 19.2931 8.92141 19.6451 8.64408C19.9971 8.36141 20.4131 8.22008 20.8931 8.22008C21.2718 8.22008 21.5758 8.30274 21.8051 8.46808L21.6771 9.94808C21.6504 10.0441 21.6104 10.1134 21.5571 10.1561C21.5091 10.1934 21.4424 10.2121 21.3571 10.2121C21.2771 10.2121 21.1571 10.1987 20.9971 10.1721C20.8424 10.1454 20.6904 10.1321 20.5411 10.1321C20.3224 10.1321 20.1278 10.1641 19.9571 10.2281C19.7864 10.2921 19.6318 10.3854 19.4931 10.5081C19.3598 10.6254 19.2398 10.7694 19.1331 10.9401C19.0318 11.1107 18.9358 11.3054 18.8451 11.5241V16.5801H16.8691V8.37208H18.0291C18.2318 8.37208 18.3731 8.40941 18.4531 8.48408C18.5331 8.55341 18.5864 8.68141 18.6131 8.86808L18.7331 9.79608ZM22.5179 16.5801V8.37208H23.7259C23.9819 8.37208 24.1499 8.49208 24.2299 8.73208L24.3579 9.34008C24.5019 9.18008 24.6512 9.03341 24.8059 8.90008C24.9659 8.76674 25.1339 8.65208 25.3099 8.55608C25.4912 8.46008 25.6832 8.38541 25.8859 8.33208C26.0939 8.27341 26.3205 8.24408 26.5659 8.24408C27.0832 8.24408 27.5072 8.38541 27.8379 8.66808C28.1739 8.94541 28.4245 9.31608 28.5899 9.78008C28.7179 9.50808 28.8779 9.27608 29.0699 9.08408C29.2619 8.88674 29.4725 8.72674 29.7019 8.60408C29.9312 8.48141 30.1739 8.39074 30.4299 8.33208C30.6912 8.27341 30.9525 8.24408 31.2139 8.24408C31.6672 8.24408 32.0699 8.31341 32.4219 8.45208C32.7739 8.59074 33.0699 8.79341 33.3099 9.06008C33.5499 9.32674 33.7312 9.65208 33.8539 10.0361C33.9819 10.4201 34.0459 10.8601 34.0459 11.3561V16.5801H32.0699V11.3561C32.0699 10.8334 31.9552 10.4414 31.7259 10.1801C31.4965 9.91341 31.1605 9.78008 30.7179 9.78008C30.5152 9.78008 30.3259 9.81474 30.1499 9.88408C29.9792 9.95341 29.8272 10.0547 29.6939 10.1881C29.5659 10.3161 29.4645 10.4787 29.3899 10.6761C29.3152 10.8734 29.2779 11.1001 29.2779 11.3561V16.5801H27.2939V11.3561C27.2939 10.8067 27.1819 10.4067 26.9579 10.1561C26.7392 9.90541 26.4165 9.78008 25.9899 9.78008C25.7019 9.78008 25.4325 9.85208 25.1819 9.99608C24.9365 10.1347 24.7072 10.3267 24.4939 10.5721V16.5801H22.5179ZM39.2361 8.24408C39.8441 8.24408 40.3961 8.34274 40.8921 8.54008C41.3934 8.73741 41.8201 9.01741 42.1721 9.38008C42.5294 9.74274 42.8041 10.1854 42.9961 10.7081C43.1881 11.2307 43.2841 11.8147 43.2841 12.4601C43.2841 13.1107 43.1881 13.6974 42.9961 14.2201C42.8041 14.7427 42.5294 15.1881 42.1721 15.5561C41.8201 15.9241 41.3934 16.2067 40.8921 16.4041C40.3961 16.6014 39.8441 16.7001 39.2361 16.7001C38.6228 16.7001 38.0654 16.6014 37.5641 16.4041C37.0628 16.2067 36.6334 15.9241 36.2761 15.5561C35.9241 15.1881 35.6494 14.7427 35.4521 14.2201C35.2601 13.6974 35.1641 13.1107 35.1641 12.4601C35.1641 11.8147 35.2601 11.2307 35.4521 10.7081C35.6494 10.1854 35.9241 9.74274 36.2761 9.38008C36.6334 9.01741 37.0628 8.73741 37.5641 8.54008C38.0654 8.34274 38.6228 8.24408 39.2361 8.24408ZM39.2361 15.1801C39.9188 15.1801 40.4228 14.9507 40.7481 14.4921C41.0788 14.0334 41.2441 13.3614 41.2441 12.4761C41.2441 11.5907 41.0788 10.9161 40.7481 10.4521C40.4228 9.98808 39.9188 9.75608 39.2361 9.75608C38.5428 9.75608 38.0281 9.99074 37.6921 10.4601C37.3614 10.9241 37.1961 11.5961 37.1961 12.4761C37.1961 13.3561 37.3614 14.0281 37.6921 14.4921C38.0281 14.9507 38.5428 15.1801 39.2361 15.1801ZM49.6236 10.4681C49.4049 10.1961 49.1623 10.0041 48.8956 9.89208C48.6289 9.78008 48.3436 9.72408 48.0396 9.72408C47.7409 9.72408 47.4716 9.78008 47.2316 9.89208C46.9916 10.0041 46.7863 10.1747 46.6156 10.4041C46.4449 10.6281 46.3143 10.9161 46.2236 11.2681C46.1329 11.6147 46.0876 12.0254 46.0876 12.5001C46.0876 12.9801 46.1249 13.3881 46.1996 13.7241C46.2796 14.0547 46.3916 14.3267 46.5356 14.5401C46.6796 14.7481 46.8556 14.9001 47.0636 14.9961C47.2716 15.0867 47.5036 15.1321 47.7596 15.1321C48.1703 15.1321 48.5196 15.0467 48.8076 14.8761C49.0956 14.7054 49.3676 14.4627 49.6236 14.1481V10.4681ZM51.5996 8.37208V19.2601H49.6236V15.5401C49.2983 15.8867 48.9303 16.1667 48.5196 16.3801C48.1089 16.5934 47.6316 16.7001 47.0876 16.7001C46.6396 16.7001 46.2289 16.6067 45.8556 16.4201C45.4823 16.2334 45.1596 15.9641 44.8876 15.6121C44.6209 15.2547 44.4129 14.8147 44.2636 14.2921C44.1196 13.7694 44.0476 13.1721 44.0476 12.5001C44.0476 11.8921 44.1303 11.3267 44.2956 10.8041C44.4609 10.2814 44.6983 9.82808 45.0076 9.44408C45.3169 9.06008 45.6876 8.76141 46.1196 8.54808C46.5516 8.32941 47.0369 8.22008 47.5756 8.22008C48.0876 8.22008 48.5169 8.30808 48.8636 8.48408C49.2103 8.66008 49.5196 8.89741 49.7916 9.19608L49.8956 8.73208C49.9649 8.49208 50.1303 8.37208 50.3916 8.37208H51.5996ZM55.2297 4.69208V16.5801H53.2537V4.69208H55.2297ZM61.2145 13.0761C60.6438 13.1027 60.1638 13.1534 59.7745 13.2281C59.3852 13.2974 59.0732 13.3881 58.8385 13.5001C58.6038 13.6121 58.4358 13.7427 58.3345 13.8921C58.2332 14.0414 58.1825 14.2041 58.1825 14.3801C58.1825 14.7267 58.2838 14.9747 58.4865 15.1241C58.6945 15.2734 58.9638 15.3481 59.2945 15.3481C59.6998 15.3481 60.0492 15.2761 60.3425 15.1321C60.6412 14.9827 60.9318 14.7587 61.2145 14.4601V13.0761ZM56.6865 9.51608C57.6305 8.65208 58.7665 8.22008 60.0945 8.22008C60.5745 8.22008 61.0038 8.30008 61.3825 8.46008C61.7612 8.61474 62.0812 8.83341 62.3425 9.11608C62.6038 9.39341 62.8012 9.72674 62.9345 10.1161C63.0732 10.5054 63.1425 10.9321 63.1425 11.3961V16.5801H62.2465C62.0598 16.5801 61.9158 16.5534 61.8145 16.5001C61.7132 16.4414 61.6332 16.3267 61.5745 16.1561L61.3985 15.5641C61.1905 15.7507 60.9878 15.9161 60.7905 16.0601C60.5932 16.1987 60.3878 16.3161 60.1745 16.4121C59.9612 16.5081 59.7318 16.5801 59.4865 16.6281C59.2465 16.6814 58.9798 16.7081 58.6865 16.7081C58.3398 16.7081 58.0198 16.6627 57.7265 16.5721C57.4332 16.4761 57.1798 16.3347 56.9665 16.1481C56.7532 15.9614 56.5878 15.7294 56.4705 15.4521C56.3532 15.1747 56.2945 14.8521 56.2945 14.4841C56.2945 14.2761 56.3292 14.0707 56.3985 13.8681C56.4678 13.6601 56.5798 13.4627 56.7345 13.2761C56.8945 13.0894 57.0998 12.9134 57.3505 12.7481C57.6012 12.5827 57.9078 12.4387 58.2705 12.3161C58.6385 12.1934 59.0652 12.0947 59.5505 12.0201C60.0358 11.9401 60.5905 11.8921 61.2145 11.8761V11.3961C61.2145 10.8467 61.0972 10.4414 60.8625 10.1801C60.6278 9.91341 60.2892 9.78008 59.8465 9.78008C59.5265 9.78008 59.2598 9.81741 59.0465 9.89208C58.8385 9.96674 58.6545 10.0521 58.4945 10.1481C58.3345 10.2387 58.1878 10.3214 58.0545 10.3961C57.9265 10.4707 57.7825 10.5081 57.6225 10.5081C57.4838 10.5081 57.3665 10.4734 57.2705 10.4041C57.1745 10.3294 57.0972 10.2441 57.0385 10.1481L56.6865 9.51608ZM66.5475 9.79608C66.8035 9.30541 67.1075 8.92141 67.4595 8.64408C67.8115 8.36141 68.2275 8.22008 68.7075 8.22008C69.0862 8.22008 69.3902 8.30274 69.6195 8.46808L69.4915 9.94808C69.4648 10.0441 69.4248 10.1134 69.3715 10.1561C69.3235 10.1934 69.2568 10.2121 69.1715 10.2121C69.0915 10.2121 68.9715 10.1987 68.8115 10.1721C68.6568 10.1454 68.5048 10.1321 68.3555 10.1321C68.1368 10.1321 67.9422 10.1641 67.7715 10.2281C67.6008 10.2921 67.4462 10.3854 67.3075 10.5081C67.1742 10.6254 67.0542 10.7694 66.9475 10.9401C66.8462 11.1107 66.7502 11.3054 66.6595 11.5241V16.5801H64.6835V8.37208H65.8435C66.0462 8.37208 66.1875 8.40941 66.2675 8.48408C66.3475 8.55341 66.4008 8.68141 66.4275 8.86808L66.5475 9.79608ZM70.2042 15.4921C70.2042 15.3267 70.2336 15.1694 70.2922 15.0201C70.3562 14.8707 70.4416 14.7427 70.5482 14.6361C70.6549 14.5294 70.7829 14.4441 70.9322 14.3801C71.0816 14.3161 71.2416 14.2841 71.4122 14.2841C71.5829 14.2841 71.7402 14.3161 71.8842 14.3801C72.0336 14.4441 72.1616 14.5294 72.2682 14.6361C72.3802 14.7427 72.4682 14.8707 72.5322 15.0201C72.5962 15.1694 72.6282 15.3267 72.6282 15.4921C72.6282 15.6627 72.5962 15.8227 72.5322 15.9721C72.4682 16.1161 72.3802 16.2414 72.2682 16.3481C72.1616 16.4547 72.0336 16.5374 71.8842 16.5961C71.7402 16.6601 71.5829 16.6921 71.4122 16.6921C71.2416 16.6921 71.0816 16.6601 70.9322 16.5961C70.7829 16.5374 70.6549 16.4547 70.5482 16.3481C70.4416 16.2414 70.3562 16.1161 70.2922 15.9721C70.2336 15.8227 70.2042 15.6627 70.2042 15.4921ZM70.2042 9.78808C70.2042 9.62274 70.2336 9.46541 70.2922 9.31608C70.3562 9.16674 70.4416 9.03874 70.5482 8.93208C70.6549 8.82541 70.7829 8.74008 70.9322 8.67608C71.0816 8.61208 71.2416 8.58008 71.4122 8.58008C71.5829 8.58008 71.7402 8.61208 71.8842 8.67608C72.0336 8.74008 72.1616 8.82541 72.2682 8.93208C72.3802 9.03874 72.4682 9.16674 72.5322 9.31608C72.5962 9.46541 72.6282 9.62274 72.6282 9.78808C72.6282 9.95874 72.5962 10.1187 72.5322 10.2681C72.4682 10.4121 72.3802 10.5374 72.2682 10.6441C72.1616 10.7507 72.0336 10.8361 71.8842 10.9001C71.7402 10.9587 71.5829 10.9881 71.4122 10.9881C71.2416 10.9881 71.0816 10.9587 70.9322 10.9001C70.7829 10.8361 70.6549 10.7507 70.5482 10.6441C70.4416 10.5374 70.3562 10.4121 70.2922 10.2681C70.2336 10.1187 70.2042 9.95874 70.2042 9.78808Z" fill="#0F1826"/>
<g clip-path="url(#clip0_1_595)">
<path fill-rule="evenodd" clip-rule="evenodd" d="M24.58 49.7801C24.58 56.656 19.2074 62.2301 12.58 62.2301C5.95257 62.2301 0.579987 56.656 0.579987 49.7801C0.579987 42.9041 5.95257 37.3301 12.58 37.3301C19.2074 37.3301 24.58 42.9041 24.58 49.7801ZM12.9546 46.3203C11.7903 46.8333 9.46333 47.8951 5.97367 49.5057C5.40701 49.7444 5.11016 49.9779 5.08314 50.2062C5.03747 50.5921 5.49368 50.7441 6.11491 50.951C6.19941 50.9792 6.28696 51.0083 6.37672 51.0392C6.98792 51.2497 7.81008 51.4959 8.23749 51.5057C8.6252 51.5146 9.05791 51.3452 9.53565 50.9977C12.7962 48.6663 14.4792 47.4879 14.5849 47.4625C14.6594 47.4445 14.7628 47.422 14.8327 47.4879C14.9027 47.5538 14.8959 47.6786 14.8884 47.7121C14.8433 47.9162 13.0525 49.6798 12.1258 50.5924C11.8369 50.8769 11.6319 51.0788 11.59 51.1249C11.4962 51.2281 11.4006 51.3258 11.3086 51.4196C10.7408 51.9995 10.315 52.4343 11.3322 53.1444C11.821 53.4856 12.2122 53.7678 12.6024 54.0493C13.0286 54.3567 13.4537 54.6634 14.0036 55.0453C14.1438 55.1426 14.2776 55.2436 14.4079 55.3421C14.9039 55.7166 15.3495 56.0531 15.8999 55.9994C16.2198 55.9683 16.5502 55.6496 16.718 54.6994C17.1146 52.4537 17.8941 47.5879 18.0742 45.5828C18.09 45.4071 18.0701 45.1823 18.0542 45.0836C18.0383 44.9849 18.0049 44.8443 17.8838 44.7402C17.7404 44.6169 17.519 44.5909 17.42 44.5927C16.9697 44.6011 16.279 44.8556 12.9546 46.3203Z" fill="#BA8D5B"/>
</g>
<g clip-path="url(#clip1_1_595)">
<path fill-rule="evenodd" clip-rule="evenodd" d="M48.58 36.5801C41.9526 36.5801 36.58 41.9527 36.58 48.5801C36.58 55.2075 41.9526 60.5801 48.58 60.5801C55.2074 60.5801 60.58 55.2075 60.58 48.5801C60.58 41.9527 55.2074 36.5801 48.58 36.5801ZM49.7347 48.5792V56.5801H46.6307V48.5795H45.08V45.8223H46.6307V44.1669C46.6307 41.9176 47.5064 40.5801 49.9942 40.5801H52.0653V43.3376H50.7707C49.8023 43.3376 49.7382 43.7229 49.7382 44.442L49.7347 45.822H52.08L51.8056 48.5792H49.7347Z" fill="#BA8D5B"/>
</g>
<g clip-path="url(#clip2_1_595)">
<path fill-rule="evenodd" clip-rule="evenodd" d="M84.58 36.5801C77.9526 36.5801 72.58 41.9527 72.58 48.5801C72.58 55.2075 77.9526 60.5801 84.58 60.5801C91.2074 60.5801 96.58 55.2075 96.58 48.5801C96.58 41.9527 91.2074 36.5801 84.58 36.5801ZM89.5808 44.4547C90.1316 44.6059 90.5653 45.0512 90.7125 45.6167C90.98 46.6416 90.98 48.7801 90.98 48.7801C90.98 48.7801 90.98 50.9185 90.7125 51.9435C90.5653 52.509 90.1316 52.9543 89.5808 53.1055C88.5827 53.3801 84.58 53.3801 84.58 53.3801C84.58 53.3801 80.5773 53.3801 79.5791 53.1055C79.0283 52.9543 78.5946 52.509 78.4474 51.9435C78.18 50.9185 78.18 48.7801 78.18 48.7801C78.18 48.7801 78.18 46.6416 78.4474 45.6167C78.5946 45.0512 79.0283 44.6059 79.5791 44.4547C80.5773 44.1801 84.58 44.1801 84.58 44.1801C84.58 44.1801 88.5827 44.1801 89.5808 44.4547Z" fill="#BA8D5B"/>
<path d="M83.38 50.9805V46.9805L86.58 48.9806L83.38 50.9805Z" fill="#BA8D5B"/>
</g>
<g clip-path="url(#clip3_1_595)">
<mask id="mask0_1_595" style="mask-type:luminance" maskUnits="userSpaceOnUse" x="108" y="36" width="25" height="25">
<path d="M132.58 36.5801H108.58V60.5801H132.58V36.5801Z" fill="white"/>
</mask>
<g mask="url(#mask0_1_595)">
<path d="M120.58 60.5801C127.207 60.5801 132.58 55.2075 132.58 48.5801C132.58 41.9527 127.207 36.5801 120.58 36.5801C113.953 36.5801 108.58 41.9527 108.58 48.5801C108.58 55.2075 113.953 60.5801 120.58 60.5801Z" fill="#BA8D5B"/>
<path d="M123.129 41.9121H118.036C115.764 41.9121 113.919 43.7574 113.919 46.0294V51.1228C113.919 53.3948 115.764 55.2401 118.036 55.2401H123.129C125.401 55.2401 127.247 53.3948 127.247 51.1228V46.0294C127.247 43.7574 125.401 41.9121 123.129 41.9121ZM125.759 51.1281C125.759 52.5788 124.58 53.7628 123.124 53.7628H118.031C116.58 53.7628 115.396 52.5841 115.396 51.1281V46.0348C115.396 44.5841 116.575 43.4001 118.031 43.4001H123.124C124.575 43.4001 125.759 44.5788 125.759 46.0348V51.1281Z" fill="white"/>
<path d="M120.58 45.1699C118.702 45.1699 117.172 46.7006 117.172 48.5779C117.172 50.4553 118.702 51.9859 120.58 51.9859C122.457 51.9859 123.988 50.4553 123.988 48.5779C123.988 46.7006 122.457 45.1699 120.58 45.1699ZM120.58 50.6473C119.438 50.6473 118.51 49.7193 118.51 48.5779C118.51 47.4366 119.438 46.5086 120.58 46.5086C121.721 46.5086 122.649 47.4366 122.649 48.5779C122.649 49.7193 121.721 50.6473 120.58 50.6473Z" fill="white"/>
<path d="M124.247 45.543C124.561 45.4921 124.775 45.1963 124.724 44.8823C124.673 44.5683 124.377 44.355 124.063 44.4059C123.749 44.4568 123.536 44.7526 123.587 45.0666C123.638 45.3806 123.933 45.5939 124.247 45.543Z" fill="white"/>
</g>
</g>
<g clip-path="url(#clip4_1_595)">
<path d="M144.58 48.5801C144.58 41.9527 149.953 36.5801 156.58 36.5801C163.207 36.5801 168.58 41.9527 168.58 48.5801C168.58 55.2075 163.207 60.5801 156.58 60.5801C149.953 60.5801 144.58 55.2075 144.58 48.5801Z" fill="#BA8D5B"/>
<path fill-rule="evenodd" clip-rule="evenodd" d="M153.239 43.9914C153.239 44.776 152.649 45.4037 151.701 45.4037H151.683C150.77 45.4037 150.18 44.776 150.18 43.9914C150.18 43.1903 150.788 42.5801 151.719 42.5801C152.649 42.5801 153.222 43.1903 153.239 43.9914ZM153.06 46.5189V54.6898H150.341V46.5189H153.06ZM162.868 54.6899L162.868 50.005C162.868 47.4953 161.526 46.3272 159.737 46.3272C158.293 46.3272 157.647 47.1203 157.286 47.6766V46.5193H154.566C154.602 47.286 154.566 54.6902 154.566 54.6902H157.286V50.1269C157.286 49.8827 157.303 49.6391 157.375 49.4642C157.572 48.9764 158.019 48.4713 158.771 48.4713C159.755 48.4713 160.149 49.2205 160.149 50.3185V54.6899H162.868Z" fill="white"/>
</g>
<defs>
<clipPath id="clip0_1_595">
<rect width="24" height="26" fill="white" transform="translate(0.579987 36.5801)"/>
</clipPath>
<clipPath id="clip1_1_595">
<rect width="24" height="24" fill="white" transform="translate(36.58 36.5801)"/>
</clipPath>
<clipPath id="clip2_1_595">
<rect width="24" height="24" fill="white" transform="translate(72.58 36.5801)"/>
</clipPath>
<clipPath id="clip3_1_595">
<rect width="24" height="24" fill="white" transform="translate(108.58 36.5801)"/>
</clipPath>
<clipPath id="clip4_1_595">
<rect width="24" height="24" fill="white" transform="translate(144.58 36.5801)"/>
</clipPath>
</defs>
</svg>
