<svg width="214" height="47" viewBox="0 0 214 47" fill="none" xmlns="http://www.w3.org/2000/svg">
<g clip-path="url(#clip0_1_532)">
<path d="M0 13.8651C0 13.547 0.14314 13.3879 0.424119 13.3879H1.82371C1.91914 13.3879 2.01457 13.4144 2.10469 13.4622C2.20012 13.5152 2.27964 13.6106 2.34856 13.759L8.75276 26.3819L9.16628 27.6012L9.03904 26.366L8.93831 13.8598C8.93831 13.7219 8.97542 13.6106 9.04965 13.5205C9.12387 13.4304 9.2299 13.3879 9.37834 13.3879H10.8203C10.9423 13.3879 11.0377 13.4251 11.1172 13.4993C11.1967 13.5735 11.2339 13.6901 11.2339 13.8545V31.2593C11.2339 31.5668 11.0854 31.7205 10.7832 31.7205H9.42075C9.32532 31.7205 9.2299 31.6993 9.12387 31.6516C9.02314 31.6039 8.93831 31.5084 8.88 31.36L2.50761 18.9174L2.05698 17.6556L2.20012 18.928L2.27964 31.2434C2.27964 31.5615 2.1418 31.7205 1.86612 31.7205H0.424119C0.14314 31.7205 0 31.5615 0 31.2434V13.8651Z" fill="black"/>
<path d="M26.6082 31.2329C26.6612 31.3813 26.6559 31.4979 26.587 31.5881C26.5234 31.6782 26.4279 31.7206 26.2954 31.7206H24.636C24.5406 31.7206 24.4505 31.6941 24.3551 31.6411C24.2596 31.5881 24.196 31.4926 24.1642 31.3442L23.3054 27.9618H17.7494L16.9012 31.3442C16.8693 31.4926 16.8057 31.5881 16.7103 31.6411C16.6149 31.6941 16.5195 31.7206 16.4293 31.7206H14.77C14.6427 31.7206 14.5473 31.6729 14.489 31.5881C14.4307 31.4979 14.4201 31.3813 14.4625 31.2329L19.3611 13.7751C19.4035 13.6319 19.4671 13.5259 19.5466 13.4676C19.6261 13.4093 19.7216 13.3774 19.8223 13.3774H21.2484C21.3491 13.3774 21.4445 13.4093 21.5294 13.4676C21.6142 13.5259 21.6778 13.6319 21.7202 13.7751L26.6029 31.2329H26.6082ZM18.3061 25.8094H22.7646L20.7341 17.7618L20.5433 16.3993L20.3524 17.7618L18.3114 25.8094H18.3061Z" fill="black"/>
<path d="M34.5233 13.8545C34.5233 13.6849 34.5657 13.563 34.6506 13.494C34.7354 13.4251 34.8255 13.3933 34.9209 13.3933H36.4637C36.6333 13.3933 36.75 13.4357 36.8189 13.5258C36.8825 13.616 36.9143 13.7432 36.9143 13.9076L36.8984 27.4953C36.8984 28.1792 36.7818 28.8047 36.5432 29.3614C36.3099 29.9181 35.9865 30.3899 35.5836 30.7822C35.1807 31.1745 34.7036 31.4767 34.1575 31.6888C33.6115 31.9008 33.023 32.0121 32.3974 32.0121C31.7294 32.0121 31.088 31.8849 30.4783 31.6304C29.8686 31.376 29.365 31.0367 28.9674 30.6073C28.8825 30.5224 28.8136 30.4111 28.7606 30.2733C28.7076 30.1354 28.7447 30.0082 28.8613 29.8862L29.699 28.9108C29.8209 28.7888 29.9375 28.7411 30.0542 28.7676C30.1708 28.7941 30.2768 28.8578 30.367 28.9585C30.5525 29.1387 30.8123 29.3137 31.1463 29.478C31.475 29.6424 31.8567 29.7272 32.2808 29.7272C32.6095 29.7272 32.9064 29.6636 33.182 29.5417C33.4577 29.4197 33.691 29.2448 33.8871 29.0221C34.0833 28.7994 34.237 28.5291 34.3484 28.211C34.4597 27.8929 34.5127 27.5483 34.5127 27.1719V13.8545H34.5233Z" fill="black"/>
<path d="M40.4451 19.3046C40.4451 18.4563 40.567 17.6558 40.8056 16.8977C41.0441 16.1449 41.4046 15.4822 41.8818 14.9096C42.3589 14.3371 42.9474 13.8917 43.6578 13.5577C44.3629 13.229 45.1846 13.0647 46.1177 13.0647C47.0507 13.0647 47.8619 13.229 48.567 13.5577C49.2721 13.8864 49.8711 14.3371 50.3536 14.899C50.836 15.4663 51.2018 16.1237 51.4457 16.8765C51.6895 17.6293 51.8115 18.4298 51.8115 19.278V25.8201C51.8115 26.6683 51.6895 27.4688 51.4457 28.2217C51.2018 28.9745 50.8413 29.6372 50.3589 30.1991C49.8764 30.7664 49.2827 31.2117 48.5723 31.5404C47.8619 31.8691 47.0401 32.0334 46.1177 32.0334C45.1952 32.0334 44.3788 31.8691 43.6737 31.5404C42.9686 31.2117 42.3801 30.7611 41.8977 30.1991C41.4205 29.6319 41.0547 28.9745 40.8109 28.2217C40.567 27.4688 40.4451 26.6683 40.4451 25.8201V19.2886V19.3046ZM42.8254 25.9897C42.8254 26.5199 42.8944 27.0182 43.0375 27.4795C43.1806 27.9407 43.3874 28.3436 43.6684 28.6829C43.9494 29.0222 44.2886 29.2873 44.6969 29.4887C45.1051 29.6849 45.5769 29.7856 46.1177 29.7856C46.6584 29.7856 47.1356 29.6902 47.5438 29.4887C47.9573 29.2926 48.3019 29.0222 48.5882 28.6829C48.8691 28.3436 49.0812 27.946 49.2243 27.4848C49.3675 27.0288 49.4364 26.5305 49.4364 26.0003V19.1243C49.4364 18.5995 49.3622 18.1117 49.219 17.6505C49.0759 17.1893 48.8638 16.7916 48.5829 16.447C48.3019 16.1025 47.9573 15.8321 47.5491 15.6306C47.1409 15.4292 46.6637 15.3284 46.123 15.3284C45.5822 15.3284 45.121 15.4292 44.7075 15.6253C44.294 15.8215 43.9494 16.0918 43.6737 16.4364C43.3927 16.781 43.1859 17.184 43.0428 17.6452C42.8997 18.1064 42.8307 18.5995 42.8307 19.1243V25.9897H42.8254Z" fill="black"/>
<path d="M53.9957 13.828C53.9957 13.6848 54.0328 13.5735 54.107 13.4993C54.1812 13.4251 54.2714 13.3879 54.3827 13.3879H64.6941C64.7948 13.3879 64.885 13.4251 64.9592 13.4993C65.0334 13.5735 65.0705 13.6795 65.0705 13.828V15.2541C65.0705 15.4025 65.0334 15.5032 64.9592 15.5669C64.885 15.6305 64.8001 15.6623 64.6941 15.6623H60.7233V31.2805C60.7233 31.4289 60.6862 31.5349 60.6173 31.6092C60.5483 31.6834 60.4582 31.7205 60.3469 31.7205H58.7299C58.608 31.7205 58.5179 31.6834 58.449 31.6092C58.38 31.5349 58.3429 31.4289 58.3429 31.2805V15.6623H54.3827C54.2714 15.6623 54.1812 15.6305 54.107 15.5669C54.0328 15.5032 53.9957 15.3972 53.9957 15.2541V13.828Z" fill="black"/>
<path d="M145.765 13.828C145.765 13.6848 145.802 13.5735 145.876 13.4993C145.95 13.4251 146.04 13.3879 146.152 13.3879H156.463C156.564 13.3879 156.654 13.4251 156.728 13.4993C156.802 13.5735 156.839 13.6795 156.839 13.828V15.2541C156.839 15.4025 156.802 15.5032 156.728 15.5669C156.654 15.6305 156.569 15.6623 156.463 15.6623H152.492V31.2805C152.492 31.4289 152.46 31.5349 152.391 31.6092C152.322 31.6834 152.232 31.7205 152.121 31.7205H150.504C150.382 31.7205 150.292 31.6834 150.223 31.6092C150.154 31.5349 150.122 31.4289 150.122 31.2805V15.6623H146.162C146.051 15.6623 145.961 15.6305 145.886 15.5669C145.812 15.5032 145.775 15.3972 145.775 15.2541V13.828H145.765Z" fill="black"/>
<path d="M169.664 31.2329C169.717 31.3813 169.706 31.4979 169.642 31.5881C169.579 31.6782 169.483 31.7206 169.351 31.7206H167.691C167.596 31.7206 167.506 31.6941 167.411 31.6411C167.315 31.5881 167.251 31.4926 167.22 31.3442L166.361 27.9618H160.805L159.957 31.3442C159.925 31.4926 159.856 31.5881 159.766 31.6411C159.67 31.6941 159.58 31.7206 159.485 31.7206H157.825C157.698 31.7206 157.603 31.6729 157.544 31.5881C157.486 31.4979 157.476 31.3813 157.518 31.2329L162.416 13.7751C162.459 13.6319 162.523 13.5259 162.602 13.4676C162.682 13.4093 162.777 13.3774 162.878 13.3774H164.304C164.405 13.3774 164.5 13.4093 164.585 13.4676C164.67 13.5259 164.733 13.6319 164.776 13.7751L169.658 31.2329H169.664ZM161.362 25.8094H165.82L163.79 17.7618L163.599 16.3993L163.408 17.7618L161.367 25.8094H161.362Z" fill="black"/>
<path d="M172.548 13.9553C172.548 13.791 172.59 13.6637 172.67 13.563C172.749 13.4623 172.871 13.4146 173.035 13.4146H174.679C175.002 13.4146 175.167 13.5948 175.167 13.9553V16.1554C175.167 16.4311 175.119 16.6644 175.023 16.8552C174.928 17.0461 174.801 17.2051 174.647 17.3324C174.488 17.4543 174.308 17.5497 174.101 17.608C173.894 17.6663 173.682 17.6982 173.47 17.6982C173.205 17.6982 173.072 17.5921 173.072 17.3748V16.8499C173.072 16.7492 173.11 16.675 173.189 16.6326C173.269 16.5901 173.359 16.5689 173.459 16.5689C173.576 16.5689 173.661 16.5371 173.709 16.4788C173.756 16.4205 173.778 16.3304 173.778 16.219C173.778 16.1077 173.756 16.0282 173.719 15.9805C173.682 15.9328 173.608 15.9116 173.507 15.9116H172.982C172.86 15.9116 172.76 15.8744 172.675 15.7949C172.59 15.7154 172.548 15.5935 172.548 15.4238V13.9606V13.9553Z" fill="black"/>
<path d="M179.673 13.8651C179.673 13.547 179.816 13.3879 180.097 13.3879H181.629C181.91 13.3879 182.053 13.547 182.053 13.8651V29.4568H188.054C188.171 29.4568 188.272 29.4886 188.341 29.5522C188.415 29.6158 188.452 29.7218 188.452 29.865V31.2805C188.452 31.4289 188.415 31.5349 188.341 31.6092C188.267 31.6834 188.171 31.7205 188.054 31.7205H180.097C179.816 31.7205 179.673 31.5615 179.673 31.2434V13.8651Z" fill="black"/>
<path d="M192.259 13.8651C192.259 13.547 192.402 13.3879 192.693 13.3879H194.225C194.501 13.3879 194.639 13.547 194.639 13.8651V31.2434C194.639 31.5615 194.501 31.7205 194.225 31.7205H192.693C192.402 31.7205 192.259 31.5615 192.259 31.2434V13.8651Z" fill="black"/>
<path d="M202.459 19.0076L201.997 17.3376L202.151 18.997L202.252 31.2593C202.268 31.5668 202.141 31.7205 201.865 31.7205H200.359C200.221 31.7205 200.126 31.6781 200.078 31.5933C200.025 31.5085 199.999 31.3918 199.999 31.2487V13.8015C200.009 13.6743 200.041 13.5682 200.11 13.494C200.174 13.4145 200.264 13.3774 200.386 13.3774H202.199C202.31 13.3774 202.39 13.4092 202.437 13.4781C202.485 13.547 202.528 13.6424 202.575 13.7591L206.801 24.9664L207.007 26.032L207.214 24.9505L211.461 13.7538C211.503 13.6318 211.551 13.5417 211.598 13.4728C211.646 13.4039 211.726 13.3721 211.837 13.3721H213.624C213.74 13.3721 213.836 13.4092 213.899 13.4887C213.963 13.5682 214 13.669 214.005 13.7962V31.2434C214.021 31.5615 213.91 31.7205 213.661 31.7205H212.155C211.901 31.7205 211.773 31.5668 211.773 31.2593L211.89 19.0076L212.033 17.3853L211.598 19.0076L207.999 28.4813C207.956 28.6298 207.903 28.7305 207.845 28.7835C207.787 28.8418 207.702 28.8683 207.601 28.8683H206.445C206.35 28.8683 206.276 28.8418 206.212 28.7835C206.154 28.7305 206.101 28.6298 206.058 28.4813L202.475 19.0076H202.459Z" fill="black"/>
<path d="M139.641 14.4006L137.828 14.7134C134.128 15.3549 130.687 16.3357 127.554 17.4861V7.56699L126.584 8.00171C124.389 8.98779 122.305 10.0163 120.317 11.1031L120.248 0.71216L119.199 1.38545C114.083 4.65117 109.396 8.36221 105.208 12.4497C101.174 8.63789 96.6303 4.93215 91.6363 1.40135L90.5548 0.637939V11.4106C88.3918 10.1965 86.1757 9.08852 83.912 8.09714L82.9471 7.67302L82.9948 16.8976C79.6814 15.7578 76.3468 15.0156 73.0386 14.6816L71.4111 14.5172L84.4315 30.7875L84.3732 18.8751C86.6104 19.7498 88.6833 20.7465 90.5548 21.7697V32.0811L90.6926 32.2613C94.5203 37.4144 104.593 45.796 105.017 46.1512L105.452 46.5117L105.892 46.1512C106.321 45.8013 116.394 37.5045 120.227 32.15L120.455 31.763L120.392 22.162C122.152 21.2342 124.087 20.3224 126.181 19.4741V30.8299L139.641 14.39V14.4006ZM127.554 18.9493C130.221 17.9473 133.115 17.0673 136.217 16.4205L127.554 26.997V18.9493ZM74.5549 16.2455C77.5449 16.6749 80.3759 17.4278 82.9948 18.3608L83.0372 26.8485L74.5549 16.2455ZM118.891 3.22507L118.907 11.9036C115.843 13.6637 113.012 15.5669 110.351 17.6716C109.773 17.0355 109.174 16.3993 108.564 15.7631C107.795 14.9679 107.005 14.1779 106.194 13.388C110.017 9.66108 114.237 6.28403 118.891 3.22507ZM95.8244 23.3813C94.5415 22.5172 93.2426 21.7114 91.9278 20.9639V13.7962C94.4726 15.3337 96.9325 17.0301 99.2969 18.8698C98.0935 20.3224 96.9378 21.828 95.8244 23.376M100.363 19.7127C101.704 20.7942 103.008 21.9234 104.275 23.0951C103.05 24.3303 101.852 25.6292 100.675 26.997C99.5885 26.101 98.3427 25.1361 96.9431 24.1501C98.0352 22.6232 99.175 21.1441 100.357 19.7127M109.285 18.5199C107.896 19.665 106.555 20.8631 105.25 22.1302C103.952 20.9267 102.616 19.771 101.243 18.663C102.515 17.1733 103.84 15.7313 105.224 14.3423C106.655 15.726 108.007 17.1203 109.285 18.5252M109.078 27.9459C107.239 29.4197 105.971 30.6126 105.314 31.2593C104.683 30.5967 103.464 29.3773 101.725 27.8823C102.881 26.5357 104.063 25.2581 105.272 24.0387C106.581 25.2899 107.848 26.594 109.073 27.9459M100.834 28.932C103.353 31.1003 104.763 32.6802 104.784 32.7067L105.282 33.2686L105.797 32.7173C105.797 32.7173 107.292 31.1374 109.99 28.9691C110.849 29.9499 111.687 30.9572 112.503 31.9804L105.494 38.6072L98.3745 32.0281C99.1856 30.9572 100.002 29.9234 100.834 28.9267M106.247 23.0685C107.525 21.8333 108.84 20.6564 110.202 19.5378C111.596 21.1176 112.89 22.7027 114.083 24.2932C113.956 24.378 113.828 24.4628 113.706 24.5424C112.386 25.4277 111.199 26.2866 110.16 27.0818C108.903 25.6928 107.599 24.3515 106.252 23.0632M111.262 18.6789C113.653 16.7916 116.182 15.0686 118.902 13.4728L118.912 21.3933C117.576 22.1196 116.347 22.8512 115.228 23.551C114.014 21.9287 112.688 20.3012 111.257 18.6789M91.9278 3.29929C96.4659 6.57031 100.59 9.95796 104.243 13.4092C103.528 14.1302 102.828 14.8618 102.144 15.604C101.476 16.3304 100.824 17.0673 100.177 17.8254C97.5421 15.7684 94.7853 13.8917 91.9225 12.2058V3.29929H91.9278ZM86.3454 18.1965C85.688 17.9155 85.0253 17.6504 84.3626 17.4013L84.3255 9.79361C86.4461 10.7585 88.5243 11.8294 90.5548 12.9957V20.2163C89.1605 19.4741 87.7556 18.8008 86.3454 18.1965ZM95.0345 24.5106C93.953 26.0692 92.9139 27.6755 91.9278 29.319V22.5596C93.0465 23.2117 94.0856 23.8744 95.0345 24.5106ZM105.457 44.7463C103.506 43.0976 95.517 36.2587 92.0604 31.8107C93.3433 29.547 94.7111 27.3734 96.1531 25.2846C97.505 26.2388 98.7244 27.1825 99.7847 28.0573C98.8092 29.2289 97.8549 30.4429 96.9059 31.7153L96.5348 32.2083L105.505 40.4999L114.358 32.1341L113.977 31.6411C113.038 30.4429 112.074 29.2713 111.077 28.1315C112.079 27.3628 113.208 26.5463 114.47 25.7034C114.608 25.608 114.751 25.5125 114.899 25.4224C116.405 27.5218 117.73 29.6212 118.859 31.7153C115.419 36.3064 107.414 43.1082 105.457 44.7516M118.928 29.0645C118.059 27.6066 117.099 26.1487 116.05 24.6855C116.935 24.1288 117.895 23.5563 118.923 22.9837L118.934 29.0645H118.928ZM120.381 20.6458L120.328 12.6829C122.189 11.6438 124.129 10.6525 126.181 9.70879V18.0215C124.092 18.8433 122.157 19.7339 120.381 20.6458Z" fill="#AE8C5E"/>
</g>
<defs>
<clipPath id="clip0_1_532">
<rect width="214" height="45.8844" fill="white" transform="translate(0 0.637939)"/>
</clipPath>
</defs>
</svg>
